# xmcd
#
# Track frame offsets:
#	183
#	3588
#	15903
#	38755
#	58405
#	80363
#	112775
#	127348
#	142813
#	161998
#	178603
#	191388
#	205050
#	221315
#	224505
#	232488
#	249270
#	263178
#	268705
#
# Disc length: 3841 seconds
#
# Revision: 1
# Processed by: cddbd v1.4PL0 Copyright (c) Steve Scherf et al.
# Submitted via: audiograbber 1.80.04
#
DISCID=120eff13
DTITLE=Io vorrei la pelle nera - Live Vol 2
DYEAR=1994
DGENRE=
TTITLE0=Intro
TTITLE1=I feel good (I got you)
TTITLE2=Papa's got a brand new bag
TTITLE3=Try a little tenderness
TTITLE4=Hard to Handle
TTITLE5=(You make me feel like) a natural woman
TTITLE6=Since you've been gone
TTITLE7=I've got the music in me
TTITLE8=Dr Feelgood
TTITLE9=Knock on wood
TTITLE10=I can't stop loving you
TTITLE11=La pelle nera
TTITLE12=Presentazione del complesso
TTITLE13=Inno di Mameli (Fratelli d'Italia)
TTITLE14=La pelle nera Reprise
TTITLE15=Cold Sweat
TTITLE16=Got to get you into my life
TTITLE17=I've got the music in me
TTITLE18=Uomo nero (con Giorgia)
EXTD=
EXTT0=
EXTT1=
EXTT2=
EXTT3=
EXTT4=
EXTT5=
EXTT6=
EXTT7=
EXTT8=
EXTT9=
EXTT10=
EXTT11=
EXTT12=
EXTT13=
EXTT14=
EXTT15=
EXTT16=
EXTT17=
EXTT18=
PLAYORDER=
